Patient4_TMGait_0pt6_02_right_09_EMG.mot
version=1
nRows=26
nColumns=33
inDegrees=no
endheader
time	1LAddLong	2LGlutMax	3LGlutMed	4LIliopsoas	5LSemiMemb	6LBicFemLong	7LRecFem	8LVastMed	9LVastLat	10LGasMed	11LTibAnt	12lTibPost	13LPeroneusLong	14LSol	15LExtDigLong	16LFlexDigLong	17RAddLong	18RGlutMax	19RGlutMed	20RIliopsoas	21RSemiMemb	22RBicFemLong	23RRecFem	24RVastMed	25RVastLat	26RGasMed	27RTibAnt	28RTibPost	29RPeroneusLong	30RSol	31RExtDigLong	32RFlexDigLong
11.215	-0.015411	0.039063	-0.033569	-0.001526	-0.24063	0.28275	0.049133	0.003662	-0.023499	0.01709	0.009613	-0.002594	0.027313	0.043945	0.0177	-0.007629	-0.011597	-0.046082	0.036316	-0.038605	0.089722	-0.014038	-0.059052	0.062103	0.002899	-0.000458	0.080261	0.021515	-0.18524	-0.36362	0.00061	-0.023041
11.216	-0.005035	0.036316	-0.049133	0.004578	-0.2301	0.1297	0.054169	0.006256	0.068207	0.025482	0.007477	0.001221	0.014496	0.039825	0.010986	-0.002747	-0.010681	-0.031433	0.03067	-0.012817	0.066528	0.0914	-0.065613	-0.02121	-0.00473	-0.00412	0.098877	0.018768	-0.12741	-0.21088	-0.000916	-0.010376
11.217	0.009308	0.049591	-0.048065	0.002289	-0.15732	-0.10239	0.093079	0.003967	0.074158	0.022278	0.015259	0.005341	-0.1059	0.039825	0.001831	0.001221	0.01297	0.016174	-0.030518	0.15228	0.050201	-0.08194	-0.028839	-0.003815	-0.01297	-0.040283	0.079651	0.004272	-0.19806	0.42602	0.000305	-0.003357
11.218	0.031891	0.075989	0.046082	0.002594	0.005341	-0.16571	0.11932	-0.00351	0.085297	0.007324	0.010834	0.006256	-0.20493	0.06485	0.011749	0.002136	0.020599	-0.054169	0.066376	0.18158	0.10544	-0.23453	-0.029907	-0.032196	-0.00885	-0.09903	0.066528	0.003967	-0.16327	0.54153	0.001678	-0.003967
11.219	0.026398	0.028534	0.047302	0.008087	0.23911	-0.066833	0.099945	0.009308	0.26504	0.013733	0.006866	0.005493	0.13794	0.056	0.002594	-0.011292	0.018463	-0.008545	0.097046	0.11459	0.059814	-0.23071	0.007172	-0.076447	-0.016022	-0.046692	0.040588	0.001526	-0.055695	0.52673	-0.00061	-0.00061
11.22	0.013885	0.061035	0.001831	-0.007324	0.26215	0.034332	0.089722	0.024872	0.34027	0.018616	-0.000305	0.005646	0.30441	0.03891	0.008087	0.021667	-0.01358	-0.009613	0.012512	0.063477	-0.040588	-0.08728	-0.016327	-0.068054	0.011902	0.028229	0.004883	-0.007477	0.13336	0.58029	0	-0.000763
11.221	0.003967	0.050659	-0.000916	0.002747	0.098877	0.069885	0.090485	0.035248	0.24323	0.016785	0.009613	0.004425	0.33203	0.055237	0.023041	-0.00473	0.010834	-0.040131	0.05188	0.014496	0.011597	-0.002747	-0.032959	-0.029297	0.005341	0.055237	0.015106	-0.006866	0.25589	0.73074	0.000763	0.001984
11.222	-0.007629	-0.006866	0.016937	-0.007477	-0.06958	0.14435	0.076904	0.037689	0.048523	0.024414	0.010223	0.006104	-0.061798	0.051727	0.022583	-0.005035	0.0354	-0.071564	0.15121	0.037231	0.059052	-0.03067	0.007019	-0.12253	-0.007477	0.022736	0.066376	-0.00473	-0.1329	0.30975	0.008087	-0.001526
11.223	-0.004425	0.01236	0.01709	-0.008698	-0.12436	-0.058136	0.039368	0.021057	-0.11795	0.002441	0.014801	0.005493	-0.13931	0.047913	0.005188	-0.000305	0.048523	-0.083008	0.14771	-0.025177	-0.16892	-0.041199	0.048523	-0.13687	-0.021057	-0.00061	0.080719	0.009766	0.26337	-0.33402	-0.000916	-0.002136
11.224	0.013275	0.098419	0.063477	0.008545	-0.053711	-0.401	-0.053864	0.006866	-0.15823	-0.00885	0.003967	0.005188	-0.087433	0.031128	-0.033875	-0.001984	-0.001068	-0.056458	0.15686	-0.1001	-0.17944	0.070496	0.044098	0.006866	0.018616	-0.023499	0.070343	-0.003357	0.10086	-0.10819	-0.00412	-0.010376
11.225	0.029755	0.11887	0.043945	0.010681	0.072784	-0.48431	-0.17105	-0.015106	-0.038452	0.003357	0.014648	0.005646	-0.047607	-0.006561	-0.048828	0.009308	-0.035858	-0.069275	0.081482	-0.057831	-0.054779	0.12878	0.002289	0.13275	0.022583	-0.002136	0.018463	-0.007782	-0.43381	0.028381	-0.000305	0.000916
11.226	0.038605	0.16708	0.034332	0.021057	0.159	-0.38849	-0.11658	-0.025177	0.085907	0.012512	0.015869	0.005035	0.092316	0.004578	-0.020142	0.002899	-0.015411	-0.038605	-0.028687	-0.027771	-0.011292	0.12863	-0.019989	0.079498	-0.049438	0.018616	-0.020447	-0.008392	-0.007019	-0.12253	0.001221	-0.007629
11.227	0.035858	0.21225	0.033875	-0.009613	0.13748	-0.16525	0.004425	-0.01709	0.12665	0.020599	0.006714	0.002747	0.09903	0.013123	0.02655	-0.001526	-0.018158	-0.066986	0.062103	0.028839	0.017242	0.16876	-0.055847	-0.005951	-0.11887	-0.012054	-0.030212	-0.039368	0.096283	-0.271	-0.000458	-0.019836
11.228	0.030212	0.2211	0.008087	-0.001526	0.12085	-0.004578	0.13718	-0.005188	0.088043	0.030518	0.00473	0.006256	0.095062	0.029907	0.027618	0.007172	0.009003	-0.091553	0.090637	0.043488	0.1236	0.099945	-0.024719	-0.031433	-0.1001	-0.055542	-0.009155	-0.41931	0.20493	-0.089874	-0.00061	-0.020905
11.229	0.026245	0.18906	0.001984	0.008545	0.12726	0.038757	0.17929	-0.003052	0.085907	0.025177	0.010529	0.011292	0.080261	0.049896	0.014343	0.003204	0.012512	-0.074158	0.15335	-0.02655	0.11139	0.15243	0.067596	-0.049744	-0.036469	-0.055084	0.005341	0.062103	-0.11673	0.37277	0.001373	-0.017242
11.23	0.015717	0.18204	-0.001373	-0.002899	0.083923	0.02243	0.21866	0.005951	0.086212	0.004272	0.01297	0.001221	0.010986	0.053253	-0.002594	0.000153	0.014038	-0.025787	0.19608	-0.063782	0.21637	0.077057	0.11414	-0.089874	-0.027924	-0.042572	0.041962	0.24048	-0.090332	-0.070648	0.000458	-0.023651
11.231	0.012665	0.1416	-0.039825	0.012207	0.044098	0.07309	0.1973	0.013123	0.087585	0.012054	0.00824	0.006104	-0.054016	0.058899	-0.006409	0.009918	0.041962	-0.04364	0.18036	-0.025635	0.25314	0.041809	0.052032	-0.095673	0.02182	0.005188	0.07782	0.12528	0.35614	-0.93079	0.002594	-0.028839
11.232	0.010986	0.09079	-0.006104	-0.00824	0.005341	0.084381	0.11246	0.017548	0.13275	0.017548	0.016632	-0.000153	0.003967	0.031281	-0.033875	-0.002899	0.055847	-0.052338	0.17242	-0.038605	0.065155	0.017242	0.084229	-0.13596	0.13214	0.027161	0.072784	-0.11444	0.39627	-1.3429	0.002747	-0.024109
11.233	-0.005798	0.096588	-0.014648	-0.007629	-0.006409	0.1474	0.062561	0.021362	0.15076	0.019989	0.016327	0.008392	0.022125	0.014038	-0.039368	0.004272	0.011749	-0.10223	0.17899	0.005341	-0.40359	0.082092	0.069275	-0.019836	0.11276	0.041504	0.080566	0.043793	0.062408	-0.40131	0.000458	-0.012665
11.234	0.001984	0.13031	0.027313	0.006256	-0.01297	0.15778	0.015564	0.011597	0.33218	0.010223	0.009155	0.01358	0.024719	0.020599	-0.037384	0.004272	-0.046082	-0.068512	0.26367	0.053558	-0.024109	-0.021515	-0.048676	0.09552	0.021057	0.028534	0.016937	-0.11429	0.002899	0.30884	0.00412	-0.014343
11.235	-0.005035	0.14099	-0.001984	0.00473	-0.023193	0.14114	0.056	0.016937	0.47363	0.003967	-0.010223	0.004425	0.012054	0.022278	-0.022278	0.003357	0.002899	-0.029144	0.17471	0.029144	0.28839	-0.22369	0.018005	0.00412	-0.00412	0.012665	-0.033264	-0.18585	-0.2179	0.10376	-0.002289	-0.016785
11.236	-0.019073	0.13138	0.024109	0.010223	0.00473	0.13184	0.070648	-0.002441	0.42664	0.004425	-0.002289	0.010834	0.006714	0.056305	0.001373	-0.002747	0.040741	-0.052948	0.15289	-0.001984	0.095673	-0.34225	0.009308	-0.075073	-0.002899	0.026245	-0.075836	0.1915	-0.19165	0.21805	0.002289	-0.003204
11.237	-0.022736	0.093689	0.008087	0.007629	0.018616	0.16281	0.097809	-0.00351	0.24124	0.024567	-0.010223	0.00473	0.005951	0.031281	0.019073	-0.005035	0.012207	-0.020905	0.22079	-0.041962	-0.090179	-0.19302	-0.16632	-0.007324	0.00351	-0.011902	0.022583	0.27023	-0.18646	0.036926	0.001068	-0.006714
11.238	-0.040436	0.13306	0.004578	-0.029297	-0.033112	0.20767	0.15701	0.015717	0.044098	0.02243	0.005035	0.009308	0.036163	0.03006	0.036469	0.001526	0.019073	-0.030975	0.20355	-0.051117	-0.072174	-0.041962	-0.15259	0.002899	0.027008	-0.036926	0.026398	0.01358	-0.0354	0.11032	0.001984	-0.00824
11.239	-0.04425	0.19028	0.005493	-0.005798	-0.073395	0.061188	0.16037	0.020752	-0.033112	0.019226	0.007629	0.009308	0.07309	0.027618	0.037842	0.010529	0.031891	-0.070038	0.20157	-0.019989	-0.083008	0.004578	-0.029602	0.021973	-0.015106	-0.042114	0.045013	0.053711	-0.049896	0.22293	0.000153	-0.015717
11.24	-0.050964	0.15717	-0.016022	0.022736	-0.10284	-0.13931	0.12817	0.010986	-0.17761	0.022125	0.002594	0.013123	0.002899	0.030212	0.035553	0.004272	0.01709	-0.00885	0.21576	-0.043488	-0.099945	-0.008087	0.012665	0.07782	-0.022278	-0.089417	0.062714	0.16205	-0.056	0.35141	-0.000305	-0.018158
